<svg width="41" height="41" viewBox="0 0 41 41" fill="none" xmlns="http://www.w3.org/2000/svg">
<path d="M25.368 14.1351L14.3088 25.1942C13.7483 25.7555 13.7483 26.6647 14.3088 27.2259C14.5769 27.4974 14.9431 27.6494 15.3247 27.6476C15.7066 27.6516 16.0736 27.4992 16.3405 27.2259L27.3997 16.1667C27.7842 15.8084 27.9426 15.2687 27.8125 14.7593C27.6824 14.25 27.2847 13.8523 26.7754 13.7222C26.2661 13.5922 25.7264 13.7505 25.368 14.1351Z" fill="#687591"/>
<circle cx="15.8805" cy="16.3584" r="1.4375" fill="#687591"/>
<circle cx="26.0006" cy="25.0026" r="1.4375" fill="#687591"/>
<path fill-rule="evenodd" clip-rule="evenodd" d="M40.3924 12.7576C41.0254 14.3967 40.6103 16.2556 39.3403 17.4699C38.421 18.2916 37.8954 19.4663 37.8954 20.6994C37.8954 21.9326 38.421 23.1072 39.3403 23.929C40.6666 25.1341 41.1184 27.0289 40.4785 28.7027C39.8386 30.3765 38.238 31.4868 36.4462 31.4999H35.967C34.7772 31.5089 33.6425 32.0027 32.825 32.8672C32.0075 33.7318 31.5779 34.8922 31.6353 36.0807C31.6989 37.2755 31.2655 38.4434 30.4378 39.3074C29.61 40.1715 28.4618 40.6546 27.2653 40.6424C26.0475 40.6429 24.8883 40.1191 24.0837 39.2049C23.2587 38.291 22.0852 37.7694 20.8541 37.7694C19.623 37.7694 18.4495 38.291 17.6245 39.2049C16.8199 40.1191 15.6607 40.6429 14.4428 40.6424C13.2393 40.6553 12.0847 40.167 11.2557 39.2944C10.4268 38.4218 9.99822 37.2436 10.0728 36.0424C10.1249 34.8571 9.69288 33.7017 8.87597 32.8414C8.05906 31.9811 6.9275 31.49 5.74118 31.4807H5.26201C3.54784 31.3993 2.04163 30.318 1.41644 28.7198C0.791248 27.1216 1.16389 25.3053 2.36785 24.0824C3.28079 23.2609 3.80211 22.0905 3.80211 20.8624C3.80211 19.6342 3.28079 18.4638 2.36785 17.6424C0.966223 16.4522 0.464086 14.5095 1.11348 12.7892C1.76287 11.069 3.42357 9.94269 5.26201 9.97569H5.74118C6.94335 9.97302 8.09083 9.47306 8.91135 8.59445C9.73187 7.71584 10.1523 6.53689 10.0728 5.33735C10.0309 4.15551 10.474 3.00791 11.2993 2.16091C12.1246 1.3139 13.2603 0.841145 14.4428 0.852353C15.6654 0.84904 16.8281 1.38136 17.6245 2.30902C18.4576 3.21506 19.6329 3.72966 20.8637 3.72735C22.0878 3.7243 23.2551 3.21015 24.0837 2.30902C24.8764 1.37423 26.0397 0.834659 27.2653 0.833186C28.4653 0.820576 29.6168 1.30634 30.4451 2.17464C31.2734 3.04294 31.7044 4.21597 31.6353 5.41402C31.5778 6.60069 32.008 7.75929 32.8261 8.62081C33.6441 9.48234 34.779 9.97185 35.967 9.97569H36.4462C38.2026 10.0211 39.7594 11.1186 40.3924 12.7576ZM37.232 27.4365C37.3901 27.1027 37.2944 26.7039 37.002 26.4782V26.3632C35.3957 24.8826 34.482 22.7977 34.482 20.6132C34.482 18.4287 35.3957 16.3437 37.002 14.8632C37.2944 14.6375 37.3901 14.2387 37.232 13.9049C37.1219 13.5661 36.8022 13.34 36.4462 13.349H35.967C33.8288 13.3448 31.7855 12.4651 30.3128 10.9149C28.8531 9.36488 28.0793 7.29222 28.1662 5.16485C28.1984 4.9361 28.1283 4.70477 27.9745 4.53235C27.789 4.33894 27.5334 4.2284 27.2653 4.22569C26.9921 4.20037 26.7249 4.31596 26.5562 4.53235C25.0842 6.15649 22.9981 7.08827 20.8062 7.10069C18.6148 7.08592 16.5296 6.15454 15.0562 4.53235C14.9077 4.34381 14.6828 4.23137 14.4428 4.22569C14.1748 4.2284 13.9192 4.33894 13.7337 4.53235C13.5799 4.70477 13.5098 4.9361 13.542 5.16485C13.6687 7.31401 12.9037 9.4203 11.4274 10.9873C9.95107 12.5543 7.89406 13.4433 5.74118 13.4449H5.31951C4.9445 13.416 4.59753 13.6447 4.47618 14.0007C4.31812 14.3345 4.41384 14.7333 4.70618 14.959C6.32643 16.4338 7.25741 18.5181 7.27451 20.709C7.2621 22.9009 6.33032 24.987 4.70618 26.459C4.41384 26.6847 4.31812 27.0836 4.47618 27.4174C4.57351 27.7678 4.89857 28.0056 5.26201 27.9924H5.74118C7.87826 28.0005 9.91937 28.8808 11.3921 30.4295C12.8647 31.9781 13.6413 34.0609 13.542 36.1957C13.5074 36.4188 13.5782 36.6453 13.7337 36.809C13.9408 37.0155 14.2281 37.1206 14.5195 37.0965C14.7552 37.0906 14.9776 36.9864 15.1328 36.809C16.609 35.16 18.7175 34.2176 20.9308 34.2176C23.144 34.2176 25.2525 35.16 26.7287 36.809C26.8623 36.9755 27.0541 37.0851 27.2653 37.1157C27.5334 37.113 27.789 37.0024 27.9745 36.809C28.13 36.6453 28.2008 36.4188 28.1662 36.1957C28.088 34.0697 28.8605 32.0003 30.3128 30.4457C31.7907 28.9028 33.8306 28.0246 35.967 28.0115H36.3887C36.7709 28.0453 37.1239 27.8047 37.232 27.4365Z" fill="black"/>
</svg>
